<svg width="420" height="361" viewBox="0 0 420 361" fill="none" xmlns="http://www.w3.org/2000/svg">
<path d="M181.047 190.17C206.505 190.17 227.143 170.574 227.143 146.402C227.143 122.229 206.505 102.633 181.047 102.633C155.59 102.633 134.952 122.229 134.952 146.402C134.952 170.574 155.59 190.17 181.047 190.17Z" fill="#FFE2DA"/>
<g filter="url(#filter0_d_1_436)">
<path d="M156.08 239.409V165.924C156.08 103.28 102.758 52.4823 37.0002 52.4823V125.968C37.0002 188.612 90.322 239.409 156.08 239.409Z" fill="#FFC529"/>
</g>
<g filter="url(#filter1_d_1_436)">
<path d="M232.905 280.442V178.252C232.905 91.1628 307.713 20.5679 400 20.5679V122.758C400 209.847 325.192 280.442 232.905 280.442Z" fill="#FE724C"/>
</g>
<defs>
<filter id="filter0_d_1_436" x="0" y="26.4823" width="189.08" height="256.927" filterUnits="userSpaceOnUse" color-interpolation-filters="sRGB">
<feFlood flood-opacity="0" result="BackgroundImageFix"/>
<feColorMatrix in="SourceAlpha" type="matrix" values="0 0 0 0 0 0 0 0 0 0 0 0 0 0 0 0 0 0 127 0" result="hardAlpha"/>
<feOffset dx="-2" dy="9"/>
<feGaussianBlur stdDeviation="17.5"/>
<feColorMatrix type="matrix" values="0 0 0 0 1 0 0 0 0 0.772549 0 0 0 0 0.160784 0 0 0 0.25 0"/>
<feBlend mode="normal" in2="BackgroundImageFix" result="effect1_dropShadow_1_436"/>
<feBlend mode="normal" in="SourceGraphic" in2="effect1_dropShadow_1_436" result="shape"/>
</filter>
<filter id="filter1_d_1_436" x="152.905" y="0.567871" width="267.095" height="359.874" filterUnits="userSpaceOnUse" color-interpolation-filters="sRGB">
<feFlood flood-opacity="0" result="BackgroundImageFix"/>
<feColorMatrix in="SourceAlpha" type="matrix" values="0 0 0 0 0 0 0 0 0 0 0 0 0 0 0 0 0 0 127 0" result="hardAlpha"/>
<feOffset dx="-30" dy="30"/>
<feGaussianBlur stdDeviation="25"/>
<feColorMatrix type="matrix" values="0 0 0 0 0.996078 0 0 0 0 0.447059 0 0 0 0 0.298039 0 0 0 0.2 0"/>
<feBlend mode="normal" in2="BackgroundImageFix" result="effect1_dropShadow_1_436"/>
<feBlend mode="normal" in="SourceGraphic" in2="effect1_dropShadow_1_436" result="shape"/>
</filter>
</defs>
</svg>
