<svg width="23" height="23" viewBox="0 0 23 23" fill="none" xmlns="http://www.w3.org/2000/svg">
<path opacity="0.4" d="M15.5164 1.91663H7.48458C4.57125 1.91663 2.875 3.62246 2.875 6.54538V16.445C2.875 19.4158 4.57125 21.0833 7.48458 21.0833H15.5164C18.4767 21.0833 20.125 19.4158 20.125 16.445V6.54538C20.125 3.62246 18.4767 1.91663 15.5164 1.91663Z" fill="#9796A1"/>
<path fill-rule="evenodd" clip-rule="evenodd" d="M7.74302 6.37268V6.38226C7.32998 6.38226 6.99552 6.71768 6.99552 7.12976C6.99552 7.54185 7.32998 7.87726 7.74302 7.87726H10.6075C11.0205 7.87726 11.3559 7.54185 11.3559 7.11922C11.3559 6.7081 11.0205 6.37268 10.6075 6.37268H7.74302ZM15.2564 12.209H7.74302C7.32998 12.209 6.99552 11.8736 6.99552 11.4615C6.99552 11.0494 7.32998 10.713 7.74302 10.713H15.2564C15.6684 10.713 16.0039 11.0494 16.0039 11.4615C16.0039 11.8736 15.6684 12.209 15.2564 12.209ZM15.2565 16.5885H7.74317C7.45567 16.6268 7.17776 16.483 7.02442 16.2435C6.87109 15.9943 6.87109 15.678 7.02442 15.4385C7.17776 15.1893 7.45567 15.0551 7.74317 15.0839H15.2565C15.6389 15.1222 15.9273 15.448 15.9273 15.841C15.9273 16.2233 15.6389 16.5501 15.2565 16.5885Z" fill="#9796A1"/>
</svg>
