<svg width="26" height="26" viewBox="0 0 26 26" fill="none" xmlns="http://www.w3.org/2000/svg">
<circle cx="13" cy="13" r="13" fill="white"/>
<path d="M17.9685 7.28662C17.567 6.83307 16.9038 6.75797 16.4353 7.09521V7.09619C15.9373 7.45365 15.768 8.11678 16.0466 8.66846L16.0476 8.67139C16.1095 8.79623 16.2103 8.92304 16.3298 9.04248L16.3308 9.04443C17.7673 10.4984 18.3442 12.2737 17.8337 14.3296C17.3463 16.2892 16.0918 17.5914 14.2449 18.1772H14.2439C12.4436 18.7454 10.7479 18.3828 9.29468 17.1616C8.04149 16.1111 7.39963 14.6962 7.37769 13.0308L7.37866 13.0298C7.36127 11.7846 7.75057 10.6742 8.47437 9.71436L8.62378 9.5249C8.6949 9.43736 8.77451 9.36663 8.83179 9.31592C8.89677 9.25838 8.93468 9.22423 8.96753 9.18799L8.97046 9.18506L9.08374 9.04932C9.31974 8.72685 9.37127 8.36539 9.24487 7.95068L9.24585 7.94971C9.09999 7.48421 8.79092 7.2195 8.32788 7.12549C7.98919 7.05745 7.68248 7.14285 7.38062 7.38525L7.37964 7.38623C6.77746 7.866 6.35465 8.51599 5.96069 9.25146C5.29874 10.4884 5.00013 11.8239 5.04761 13.2446V13.2456C5.10005 14.8698 5.58593 16.3235 6.49878 17.6118L6.68726 17.8677C7.66944 19.1469 8.89593 20.0437 10.3796 20.4966C12.7538 21.2234 14.9593 20.9137 16.9724 19.5044L17.3718 19.2075C18.7438 18.1348 19.6466 16.7089 20.0945 14.9673V14.9663L20.1531 14.7241C20.2796 14.1591 20.3357 13.5797 20.3386 12.9858C20.3078 10.8194 19.5667 8.97619 18.1072 7.44385L18.1082 7.44287C18.0649 7.39758 17.9844 7.30414 17.9705 7.28857L17.9685 7.28662Z" fill="#FE724C" stroke="white" stroke-width="0.8"/>
<path d="M13.2483 4.27673C12.8564 4.05151 12.4699 4.05978 12.0852 4.30212L12.0842 4.3031C11.7098 4.53721 11.511 4.87824 11.511 5.33923V5.34021C11.5051 7.60054 11.5051 8.39456 11.511 10.6547C11.5132 11.3037 11.983 11.8165 12.5618 11.8744L12.5637 11.8754C13.1376 11.9347 13.6617 11.5787 13.8284 11.0052L13.8567 10.8881L13.8723 10.7601C13.8751 10.7139 13.8752 10.6627 13.8752 10.6039C13.8694 9.49361 13.8694 9.11481 13.8694 8.00525C13.8694 6.87921 13.8723 6.48882 13.8694 5.3656C13.8671 4.8647 13.6555 4.51136 13.2483 4.27771V4.27673Z" fill="#FE724C" stroke="white" stroke-width="0.8"/>
</svg>
